<svg width="30" height="30" viewBox="0 0 30 30" fill="none" xmlns="http://www.w3.org/2000/svg">
<path fill-rule="evenodd" clip-rule="evenodd" d="M20 11.25C20 14.0114 17.7614 16.25 15 16.25C12.2386 16.25 10 14.0114 10 11.25C10 8.48858 12.2386 6.25 15 6.25C17.7614 6.25 20 8.48858 20 11.25ZM17.5 11.25C17.5 12.6308 16.3808 13.75 15 13.75C13.6193 13.75 12.5 12.6308 12.5 11.25C12.5 9.86929 13.6193 8.75 15 8.75C16.3808 8.75 17.5 9.86929 17.5 11.25Z" fill="#F6C6A8"/>
<path fill-rule="evenodd" clip-rule="evenodd" d="M15 1.25C7.40609 1.25 1.25 7.40609 1.25 15C1.25 22.5939 7.40609 28.75 15 28.75C22.5939 28.75 28.75 22.5939 28.75 15C28.75 7.40609 22.5939 1.25 15 1.25ZM3.75 15C3.75 17.6127 4.64069 20.0175 6.13498 21.9271C8.19056 19.2361 11.4328 17.5 15.0806 17.5C18.681 17.5 21.8865 19.1914 23.9456 21.8229C25.3913 19.9304 26.25 17.5655 26.25 15C26.25 8.7868 21.2133 3.75 15 3.75C8.7868 3.75 3.75 8.7868 3.75 15ZM15 26.25C12.3122 26.25 9.84456 25.3074 7.90959 23.7347C9.4919 21.4765 12.1138 20 15.0806 20C18.0105 20 20.6041 21.4401 22.1923 23.6511C20.2424 25.2739 17.7351 26.25 15 26.25Z" fill="#F6C6A8"/>
</svg>
