<svg width="30" height="27" viewBox="0 0 30 27" fill="none" xmlns="http://www.w3.org/2000/svg">
<path d="M27.2461 12.623V9.89844C27.2461 8.89521 26.4328 8.08203 25.4297 8.08203H5.44922C4.44747 8.08203 3.63281 7.26737 3.63281 6.26562C3.63281 5.26388 4.44747 4.44922 5.44922 4.44922H25.4297C26.4328 4.44922 27.2461 3.63592 27.2461 2.63281C27.2461 1.6297 26.4328 0.816406 25.4297 0.816406H5.44922C2.44432 0.816406 0 3.26078 0 6.26562V8.08203V22.6133C0 24.6196 1.62659 26.2461 3.63281 26.2461H25.4297C26.4328 26.2461 27.2461 25.4329 27.2461 24.4297V21.7051C28.2492 21.7051 29.0625 20.8919 29.0625 19.8887V14.4395C29.0625 13.4362 28.2492 12.623 27.2461 12.623ZM24.5215 18.9805C23.5184 18.9805 22.7051 18.1673 22.7051 17.1641C22.7051 16.1608 23.5184 15.3477 24.5215 15.3477C25.5246 15.3477 26.3379 16.1608 26.3379 17.1641C26.3379 18.1673 25.5246 18.9805 24.5215 18.9805Z" fill="#3E1C07"/>
</svg>
